<svg id="Layer_1" viewBox="0 0 512 512" xmlns="http://www.w3.org/2000/svg" data-name="Layer 1"><path d="m322.03 488.13h-138.54l9.84-85.66 9.86-86h112.74l1.86 52.39z" fill="#feb4a9"/><path d="m317.79 368.86c-26.09 23.85-59.48 38.52-94.13 38.52a92.78 92.78 0 0 1 -30.33-4.91l9.86-86h112.74z" fill="#f47d71"/><path d="m369.84 216.27c0 83.09-70 154-146.18 154-70.26 0-108.25-70.95-108.25-154s57-143.21 127.22-143.21 127.21 60.12 127.21 143.21z" fill="#feb4a9"/><path d="m206.35 224.88-22.86 37.48 30.51 8.65" fill="none" stroke="#f47d71" stroke-linecap="round" stroke-linejoin="round" stroke-width="7.75"/><ellipse cx="177.36" cy="207.46" fill="#352120" rx="11.46" ry="17.42"/><ellipse cx="274.87" cy="207.46" fill="#352120" rx="11.46" ry="17.42"/><path d="m275.46 100.47s-7.08 111.32 57.91 111.36 55.85-16 55.85-16 36.9-100.8-12.87-146.51-101.12-30-101.12-30-77.13-46.15-137.57 4.13-99 109.19-82.78 151.85 46.73 33.51 46.73 33.51-26.92-23.36-16.76-47.23-7.94 31.49 30.56 42.16 79.98-199.93 160.05-103.27z" fill="#352120"/><g fill="none" stroke-linecap="round" stroke-linejoin="round"><path d="m144.08 174c17.88-8.33 33.72-7 47.26 5.08" stroke="#352120" stroke-width="6.64"/><path d="m254.2 174c17.87-8.33 33.72-7 47.26 5.08" stroke="#352120" stroke-width="6.64"/><path d="m194.21 301.58s32.34 4.74 70.47-12.86" stroke="#f44945" stroke-width="6.64"/></g><path d="m402.38 219.61c0 23.82-18.73 45.21-38.87 45.21s-34.07-21.39-34.07-45.21 16.33-41.06 36.47-41.06 36.47 17.24 36.47 41.06z" fill="#feb4a9"/><path d="m381.05 206.46c-6.22-15.8-31.25-2.39-29.59 24.92" fill="none" stroke="#f47d71" stroke-linecap="round" stroke-linejoin="round" stroke-width="5.54"/><path d="m353.66 215.79s17 1.93 16.44 15.76-13.35 12.45-13.35 12.45" fill="none" stroke="#f47d71" stroke-linecap="round" stroke-linejoin="round" stroke-width="5.54"/><path d="m319 402.64c-1.74 47-27.44 73.05-78.73 73.05-36.7-1.28-54.59-8.63-46.93-73.22l-86.64 24.36a88.44 88.44 0 0 0 -64.5 85.17h427.6a88.44 88.44 0 0 0 -64.54-85.15z" fill="#352120"/></svg>