<?xml version="1.0"?>
<svg xmlns="http://www.w3.org/2000/svg" id="Layer_1" data-name="Layer 1" viewBox="0 0 512 512"><defs><style>.cls-1{fill:#feb4a9;}.cls-2{fill:#f47d71;}.cls-3{fill:#352120;}.cls-4,.cls-6,.cls-7,.cls-9{fill:none;stroke-linecap:round;stroke-linejoin:round;}.cls-4{stroke:#352120;}.cls-4,.cls-7{stroke-width:6.91px;}.cls-5{fill:#543838;}.cls-6,.cls-9{stroke:#f47d71;}.cls-6{stroke-width:8.06px;}.cls-7{stroke:#f44945;}.cls-8{fill:#af4f4f;}.cls-9{stroke-width:5.76px;}.cls-10{fill:#2a7868;}</style></defs><polygon class="cls-1" points="321.73 487.28 177.67 487.28 187.9 398.21 198.16 308.78 315.38 308.78 317.31 363.26 321.73 487.28"/><path class="cls-2" d="M317.32,363.26c-27.13,24.79-61.85,40.05-97.88,40.05a96.43,96.43,0,0,1-31.54-5.1l10.26-89.43H315.38Z"/><path class="cls-1" d="M373.19,206.68c0,86.4-72.8,160.18-152,160.18-73.06,0-112.56-73.78-112.56-160.18S167.84,57.76,240.9,57.76,373.19,120.28,373.19,206.68Z"/><ellipse class="cls-3" cx="173.04" cy="197.52" rx="11.92" ry="18.12"/><ellipse class="cls-3" cx="274.43" cy="197.52" rx="11.92" ry="18.12"/><path class="cls-4" d="M138.43,154.4c18.59-8.65,35.06-7.32,49.15,5.29"/><path class="cls-4" d="M252.94,154.4c18.58-8.65,35.06-7.32,49.14,5.29"/><path class="cls-5" d="M319.06,91.43s13.24,58.29,12.68,111.13l60.42,5.65,8.35-32.28c-2.74-66.48-32.4-103-81.31-118.17L127.77,73.3l-10.23,31.33-8.92,92.93S125.23,109.49,158,95.76,319.06,91.43,319.06,91.43Z"/><polyline class="cls-6" points="203.18 215.64 179.41 254.61 211.13 263.61"/><path class="cls-7" d="M189.6,293.45s33.63,4.93,73.28-13.37"/><path class="cls-8" d="M317.3,14.9S270.07-7.24,171,2.45,54.89,133.09,115.82,155c.27-21.09-.87-37.94,6.63-53.48,0,0,4.15,47.37,72.6,37.15-6.74-17.49-8.75-33.68,4.32-45.76,0,0,2.09,51.24,73.05,48.76-5.65-18.28-5.67-33.5,1.19-45,1.89,19.91,38.92,52.22,63.72,57.62-2.8-24-2.72-45.12,16.66-47.43Z"/><path class="cls-8" d="M309.75,14.9s101.64-.42,107,118.09c3.16,70.28-60.38,144.32-60.38,144.32S385.15,223.72,384.84,155c-5.36-27.75-19-43.17-39.57-48.14C302.45,72.81,277.59,40.73,309.75,14.9Z"/><path class="cls-1" d="M407,210.15c0,24.77-19.47,47-40.42,47s-35.43-22.24-35.43-47,17-42.69,37.93-42.69S407,185.38,407,210.15Z"/><path class="cls-9" d="M384.84,196.48c-6.46-16.42-32.5-2.48-30.77,25.91"/><path class="cls-9" d="M356.36,206.18s17.64,2,17.09,16.39-13.87,12.92-13.87,12.92"/><path class="cls-10" d="M478.32,512H33.68c-.31-35.22,21.2-68.86,53.13-83.4,24.48-9.78,79.46-22.82,104.41-30.57,13.13,20.48,35.43,56,48.41,76.21,24.12-22.38,57.76-53.61,81.86-76,15.2,4.26,75.82,21.29,89.72,25.18C450.33,434,478.72,471.57,478.32,512Z"/><path class="cls-10" d="M189.28,386.16c-3,34.88,111,31,128.85,0l3.6,12.12V477h-148Z"/></svg>
