<?xml version="1.0"?>
<svg xmlns="http://www.w3.org/2000/svg" id="Layer_1" data-name="Layer 1" viewBox="0 0 512 512"><defs><style>.cls-1{fill:#feb4a9;}.cls-2{fill:#f47d71;}.cls-3{fill:#352120;}.cls-11,.cls-4,.cls-5,.cls-8,.cls-9{fill:none;stroke-linecap:round;stroke-linejoin:round;}.cls-4{stroke:#352120;}.cls-4,.cls-5{stroke-width:6.78px;}.cls-5{stroke:#f44945;}.cls-6{fill:#332876;}.cls-7{fill:#543838;}.cls-8{stroke:#f7edd2;stroke-width:9.04px;}.cls-11,.cls-9{stroke:#f47d71;}.cls-9{stroke-width:7.91px;}.cls-10{fill:#f96b57;}.cls-11{stroke-width:5.65px;}</style></defs><polygon class="cls-1" points="323.34 487.65 182.05 487.65 192.08 400.29 202.14 312.58 317.12 312.58 319.01 366.01 323.34 487.65"/><path class="cls-2" d="M319,366c-26.61,24.32-60.67,39.28-96,39.28a94.75,94.75,0,0,1-30.93-5l10.06-87.71h115Z"/><path class="cls-1" d="M372.11,210.38c0,84.75-71.4,157.11-149.09,157.11-71.66,0-110.41-72.36-110.41-157.11S170.7,64.32,242.36,64.32,372.11,125.64,372.11,210.38Z"/><ellipse class="cls-3" cx="175.8" cy="201.4" rx="11.69" ry="17.77"/><ellipse class="cls-3" cx="275.24" cy="201.4" rx="11.69" ry="17.77"/><path class="cls-4" d="M141.86,159.11c18.23-8.49,34.38-7.19,48.2,5.18"/><path class="cls-4" d="M254.16,159.11c18.24-8.49,34.39-7.19,48.21,5.18"/><path class="cls-5" d="M193,292.87s33,4.84,71.86-13.12"/><path class="cls-6" d="M474.06,512H37.94V512A90.5,90.5,0,0,1,40.39,491q.84-3.44,1.9-6.78a90.28,90.28,0,0,1,20.77-34.75,91.39,91.39,0,0,1,7.26-6.78,90.32,90.32,0,0,1,33.41-17.61l88.34-24.83,27.21,42.44,4.35,6.78,8.72,13.61,19.09-13.61,9.51-6.78,59.29-42.27,88,24.69a90,90,0,0,1,33.43,17.58,91.51,91.51,0,0,1,7.26,6.78,90.48,90.48,0,0,1,20.79,34.75q1.08,3.35,1.9,6.78A90.32,90.32,0,0,1,474.06,512Z"/><path class="cls-7" d="M363.33,55.62s-29.81,70.55-121.59,84.29-6.73-13.4,0-25.12S149.83,154.59,94.37,157c0,0-20.14-63.44,36.45-119.82S301.28-10.24,363.33,55.62Z"/><rect class="cls-8" x="105.16" y="170.13" width="87.83" height="63.18" rx="10.51"/><rect class="cls-8" x="231.33" y="170.13" width="87.83" height="63.18" rx="10.51"/><polyline class="cls-9" points="205.37 219.17 182.05 257.39 213.16 266.21"/><path class="cls-7" d="M326.32,72.25s-18.65,85.81,10.36,129.15,57,20.54,57,20.54,52.27-128-30.32-166.32S326.32,72.25,326.32,72.25Z"/><path class="cls-7" d="M363.33,55.62S369.67,18.39,330.9,6,363,31.74,363.33,55.62Z"/><path class="cls-7" d="M363.33,55.62s1.43-37,20.2-24.46C400.53,42.56,363.33,55.62,363.33,55.62Z"/><path class="cls-10" d="M471.6,491H40.39q.84-3.44,1.9-6.78H469.7Q470.78,487.61,471.6,491Z"/><path class="cls-10" d="M219.28,442.73l4.35,6.78H63.06a91.39,91.39,0,0,1,7.26-6.78Z"/><path class="cls-10" d="M448.91,449.51H251.44l9.51-6.78h180.7A91.51,91.51,0,0,1,448.91,449.51Z"/><path class="cls-8" d="M193,197.86c13.21-4.33,26-4.65,38.34,0"/><line class="cls-8" x1="319.16" y1="196.53" x2="368.1" y2="196.53"/><path class="cls-1" d="M405.3,213.79c0,24.29-19.11,46.1-39.65,46.1s-34.75-21.81-34.75-46.1,16.66-41.88,37.2-41.88S405.3,189.49,405.3,213.79Z"/><path class="cls-11" d="M383.53,200.38c-6.33-16.11-31.87-2.44-30.17,25.41"/><path class="cls-11" d="M355.6,209.89s17.3,2,16.77,16.08-13.61,12.67-13.61,12.67"/></svg>
