<svg id="Layer_1" viewBox="0 0 512 512" xmlns="http://www.w3.org/2000/svg" data-name="Layer 1"><path d="m179.65 390.58q72.89-16.71 157.66-1.24l23.32 122.66h-213.08z" fill="#fcf4e8"/><path d="m327.64 487.1h-144.49l10.26-89.34 10.29-89.7h117.57l1.94 54.65z" fill="#feb4a9"/><path d="m323.21 362.71c-27.21 24.86-62 40.17-98.17 40.17a96.72 96.72 0 0 1 -31.63-5.12l10.29-89.7h117.57z" fill="#f47d71"/><path d="m377.51 203.55c0 86.67-73 160.66-152.47 160.66-73.28 0-112.9-74-112.9-160.66s59.41-149.37 132.69-149.37 132.68 62.71 132.68 149.37z" fill="#feb4a9"/><ellipse cx="176.75" cy="194.36" fill="#352120" rx="11.95" ry="18.17"/><ellipse cx="278.45" cy="194.36" fill="#352120" rx="11.95" ry="18.17"/><g fill="none" stroke-linecap="round" stroke-linejoin="round" stroke-width="6.93"><path d="m142 151.12c18.65-8.69 35.17-7.35 49.3 5.29" stroke="#352120"/><path d="m256.89 151.12c18.65-8.69 35.17-7.35 49.3 5.29" stroke="#352120"/><path d="m194.33 287.91s33.73 4.94 73.5-13.42" stroke="#f44945"/></g><path d="m481.77 512h-446a92.46 92.46 0 0 1 2.51-21.39q.84-3.51 1.94-6.93a92.24 92.24 0 0 1 62.83-60.47l90.34-25.4 27.83 43.4 4.44 6.93 5.78 9 3.14 4.91 4.92-3.51 14.6-10.41 9.72-6.93 60.64-43.23 90 25.25a92 92 0 0 1 34.19 18 95.59 95.59 0 0 1 7.42 6.93 90.26 90.26 0 0 1 7 8.18 92.07 92.07 0 0 1 14.28 27.36q1.11 3.42 1.94 6.93a92.22 92.22 0 0 1 2.48 21.38z" fill="#332876"/><path d="m206.99 212.54-23.84 39.09 31.82 9.02" fill="none" stroke="#f47d71" stroke-linecap="round" stroke-linejoin="round" stroke-width="8.08"/><path d="m491.35 512h-154v-122.66l86.65 26.81a92.21 92.21 0 0 1 48.59 35.71 104.61 104.61 0 0 1 18.76 60.14z" fill="#fff"/><path d="m179.65 390.58-14.83 121.42h-144.17c0-44.6 27.49-83.75 67.27-95.82z" fill="#fff"/><path d="m364.58 56.88s-30.48 72.12-124.35 86.2-58.4-22.48-51.52-34.47-42.47 49.48-99.18 52c0 0-20.59-64.87 37.28-122.52s174.32-48.56 237.77 18.79z" fill="#543838"/><path d="m324.28 73.29s-19.07 87.71 10.59 132.07 58.27 21 58.27 21 53.44-130.95-31-170.09-37.86 17.02-37.86 17.02z" fill="#543838"/><path d="m411.45 207c0 24.85-19.54 47.15-40.55 47.15s-35.53-22.3-35.53-47.15 17-42.82 38-42.82 38.08 18.01 38.08 42.82z" fill="#feb4a9"/><path d="m389.19 193.32c-6.48-16.47-32.59-2.49-30.85 26" fill="none" stroke="#f47d71" stroke-linecap="round" stroke-linejoin="round" stroke-width="5.77"/><path d="m360.63 203.05s17.69 2 17.15 16.44-13.92 13-13.92 13" fill="none" stroke="#f47d71" stroke-linecap="round" stroke-linejoin="round" stroke-width="5.77"/><path d="m239.51 458.5-.79 53.5h-8.09l.82-54.9 3.14 4.91z" fill="#211a30"/><path d="m82.29 492.1h74.16" fill="none" stroke="#fcf4e8" stroke-linecap="round" stroke-linejoin="round" stroke-width="6.93"/></svg>